<svg height="492pt" viewBox="-86 0 492 492.952" width="492pt" xmlns="http://www.w3.org/2000/svg"><path d="m152.476562 68.953125h16v16h-16zm0 0"/><path d="m276.210938 349-67.734376-14.519531v-25.527344h-.207031c.070313-.050781.132813-.105469.207031-.152344v.152344c0 13.230469 10.765626 24 24 24 13.230469 0 24-10.769531 24-24v-32.160156c12.792969-9.585938 18.6875-25.808594 14.785157-41.769531-1.273438-5.207032-3.632813-10.015626-6.785157-14.199219v-15.871094c0-47.472656-32.007812-87.527344-75.550781-99.945313 7.125-7.230468 11.550781-17.128906 11.550781-28.054687v-2.808594c0-4.304687-.6875-8.558593-2.046874-12.648437-3.953126-11.839844-5.953126-24.175782-5.953126-36.648438v-24.847656l-17.457031 8.734375c-5.199219 2.601563-10.070312 5.761719-14.542969 9.433594-4.472656-3.664063-9.335937-6.832031-14.542968-9.433594l-17.457032-8.734375v24.839844c0 12.480468-2 24.808594-5.953124 36.65625-1.359376 4.089844-2.046876 8.34375-2.046876 12.648437v2.808594c0 10.925781 4.421876 20.824219 11.550782 28.054687-43.542969 12.417969-75.550782 52.472657-75.550782 99.945313v15.871094c-3.152343 4.183593-5.511718 8.992187-6.785156 14.191406-3.902344 15.96875 1.992188 32.183594 14.785156 41.777344v32.160156c0 13.230469 10.765626 24 24 24 13.230469 0 24-10.769531 24-24v-.152344c.0625.046875.136719.101563.207032.152344h-.207032v25.527344l-67.738281 14.511719c-25.644531 5.496093-44.261719 28.527343-44.261719 54.769531v89.191406h320v-89.191406c0-26.242188-18.617187-49.273438-44.265624-54.761719zm-3.351563 15.640625c8.367187 1.792969 15.59375 6.289063 21.082031 12.328125l-3.394531 7.640625c-15.726563 35.390625-39.613281 67.230469-69.09375 92.34375h-64.855469c36.804688-17.082031 66.316406-46.777344 83.199219-84.753906l-14.625-6.496094c-19.328125 43.496094-56.886719 75.058594-103.0625 86.601563l-18.609375 4.648437h-23.023438v-33.761719l13.503907-3.375c48.863281-12.207031 88.945312-44.769531 110.984375-89.71875zm-112.382813-55.6875c-35.289062 0-64-28.714844-64-64v-32.402344c0-17.421875 14.175782-31.597656 31.597657-31.597656 8.441406 0 16.378906 3.285156 22.347656 9.253906l10.054687 10.058594 10.054688-10.058594c5.96875-5.96875 13.90625-9.253906 22.34375-9.253906 17.425781 0 31.601562 14.175781 31.601562 31.597656v32.402344c0 35.285156-28.710937 64-64 64zm83.976563-43.351563-3.976563 2.308594v41.042969c0 4.414063-3.59375 8-8 8-4.410156 0-8-3.585937-8-8v-16h-.152343c10.085937-13.394531 16.152343-29.984375 16.152343-48v-22.648437c7.382813 2.535156 13.382813 8.902343 15.246094 16.519531 2.625 10.75-1.789062 21.265625-11.269531 26.777343zm-107.976563-188.648437v-2.808594c0-2.585937.414063-5.136719 1.230469-7.585937 4.335938-13.023438 6.617188-26.566406 6.761719-40.277344 3.734375 2.390625 7.199219 5.175781 10.351562 8.328125l5.65625 5.65625 5.65625-5.65625c3.152344-3.152344 6.613282-5.9375 10.351563-8.328125.152344 13.710938 2.421875 27.253906 6.757813 40.269531.816406 2.457031 1.234374 5.007813 1.234374 7.59375v2.808594c0 13.230469-10.769531 24-24 24-13.234374 0-24-10.769531-24-24zm24 40c48.519532 0 88 39.480469 88 88v3.320313c-2.097656-.90625-4.257812-1.699219-6.511718-2.21875-.679688-.160157-1.359375-.230469-2.039063-.351563-3.335937-23.007813-23.128906-40.75-47.050781-40.75-12.136719 0-23.566406 4.503906-32.398438 12.726563-8.832031-8.222657-20.273437-12.726563-32.402343-12.726563-23.910157 0-43.710938 17.742187-47.046875 40.742187-.679688.121094-1.359375.199219-2.03125.351563-2.257813.527344-4.417969 1.3125-6.511719 2.226563v-3.320313c-.007813-48.519531 39.472656-88 87.992187-88zm-64 192c0 4.414063-3.59375 8-8 8-4.410156 0-8-3.585937-8-8v-41.042969l-3.976562-2.308594c-9.480469-5.511718-13.894531-16.027343-11.273438-26.777343 1.867188-7.617188 7.859376-13.984375 15.25-16.519531v22.648437c0 18.015625 6.0625 34.605469 16.152344 48h-.152344zm-80 94.808594c0-18.746094 13.296876-35.1875 31.617188-39.121094l80.382812-17.214844v-29.195312c9.808594 4.296875 20.625 6.722656 32 6.722656s22.191407-2.425781 32-6.730469v20.914063c-19.511718 42.734375-56.71875 73.742187-102.375 85.167969l-9.625 2.40625v-37.757813h-16v88h-48zm288 73.191406h-59.328124c24.160156-23.511719 44.03125-51.480469 58.191406-82.058594.671875 2.875 1.136718 5.816407 1.136718 8.867188zm0 0"/></svg>